<svg width="273.894921875px" height="122.021240234375px" xmlns="http://www.w3.org/2000/svg" viewBox="113.05253906249999 13.9893798828125 273.894921875 122.021240234375" style="background: rgba(0, 0, 0, 0);" preserveAspectRatio="xMidYMid"><defs><filter id="editing-extrude-glow"><feFlood flood-color="#003bb8" result="flood-1"></feFlood><feMorphology operator="erode" radius="1" in="SourceAlpha" result="erode"></feMorphology><feComposite operator="in" in="flood-1" in2="erode" result="comp1"></feComposite><feConvolveMatrix order="3,3" divisor="1" in="comp1" result="convolve" kernelMatrix="0 0 0 1 1 1 0 0 0"></feConvolveMatrix><feOffset dx="-3" dy="0" in="convolve" result="extrude"></feOffset><feComposite operator="in" in="flood-1" in2="extrude" result="comp-extrude"></feComposite><feFlood flood-color="#002063" result="flood-2"></feFlood><feComposite operator="in" in="flood-2" in2="SourceAlpha" result="comp2"></feComposite><feMorphology operator="dilate" radius="1" in="comp2" result="dilate"></feMorphology><feOffset dx="-4.5" dy="0" in="dilate" result="offset"></feOffset><feGaussianBlur in="offset" stdDeviation="5.8" result="blur"></feGaussianBlur><feComponentTransfer in="blur" result="shadow"><feFuncA type="linear" slope="0.8" intercept="-0.2"></feFuncA></feComponentTransfer><feMerge><feMergeNode in="shadow"></feMergeNode><feMergeNode in="comp-extrude"></feMergeNode><feMergeNode in="SourceGraphic"></feMergeNode></feMerge></filter></defs><g filter="url(#editing-extrude-glow)"><g transform="translate(157.06437993049622, 97.45718765258789)"><path d="M2.30-9.47L2.30-9.47L2.30-9.47Q2.30-11.97 2.94-15.17L2.94-15.17L8.13-42.24L22.27-42.24L17.15-14.98L17.15-14.98Q16.58-11.97 16.58-9.76L16.58-9.76L16.58-9.76Q16.58-7.55 17.50-6.40L17.50-6.40L17.50-6.40Q18.43-5.25 20.16-5.25L20.16-5.25L20.16-5.25Q21.89-5.25 22.98-5.70L22.98-5.70L22.98-5.70Q24.06-6.14 24.96-7.23L24.96-7.23L24.96-7.23Q26.69-9.41 27.78-14.98L27.78-14.98L32.96-42.24L42.62-42.24L37.50-15.04L37.50-15.04Q35.71-5.95 30.78-2.30L30.78-2.30L30.78-2.30Q25.98 1.28 16.51 1.28L16.51 1.28L16.51 1.28Q9.41 1.28 5.63-1.79L5.63-1.79L5.63-1.79Q2.30-4.48 2.30-9.47ZM44.86-15.62L44.86-15.62L44.86-15.62Q44.86-27.71 51.14-35.33L51.14-35.33L51.14-35.33Q57.79-43.58 69.38-43.58L69.38-43.58L69.38-43.58Q77.76-43.58 81.98-39.52L81.98-39.52L81.98-39.52Q86.21-35.46 86.21-26.88L86.21-26.88L86.21-26.88Q86.21-13.82 79.55-6.21L79.55-6.21L79.55-6.21Q72.96 1.28 61.89 1.28L61.89 1.28L61.89 1.28Q53.25 1.28 49.06-3.04L49.06-3.04L49.06-3.04Q44.86-7.36 44.86-15.62ZM61.70-28.86L61.70-28.86L61.70-28.86Q58.82-17.34 58.82-8.26L58.82-8.26L58.82-8.26Q58.82-6.08 59.55-4.67L59.55-4.67L59.55-4.67Q60.29-3.26 62.24-3.26L62.24-3.26L62.24-3.26Q64.19-3.26 65.41-4.19L65.41-4.19L65.41-4.19Q66.62-5.12 67.58-7.23L67.58-7.23L67.58-7.23Q69.12-10.69 70.56-18.02L70.56-18.02L70.56-18.02Q72-25.34 72.13-28.38L72.13-28.38L72.13-28.38Q72.26-31.42 72.26-33.73L72.26-33.73L72.26-33.73Q72.26-36.03 71.55-37.50L71.55-37.50L71.55-37.50Q70.85-38.98 68.96-38.98L68.96-38.98L68.96-38.98Q67.07-38.98 65.79-37.82L65.79-37.82L65.79-37.82Q63.42-35.65 61.70-28.86ZM102.59 0L88.64 0L96.77-42.24L110.85-42.24L102.59 0ZM117.38-31.17L117.38-31.17L117.38-31.17Q115.20-32.83 115.20-36.38L115.20-36.38L115.20-36.38Q115.20-39.94 117.54-41.79L117.54-41.79L117.54-41.79Q119.87-43.65 123.90-43.65L123.90-43.65L123.90-43.65Q126.46-43.65 132.54-42.75L132.54-42.75L136.90-42.11L136.90-42.11Q139.07-41.86 141.34-41.86L141.34-41.86L141.34-41.86Q143.62-41.86 145.15-42.82L145.15-42.82L145.15-42.82Q147.46-40.77 147.46-37.82L147.46-37.82L147.46-37.82Q147.46-34.88 144.83-32.77L144.83-32.77L144.83-32.77Q142.14-30.53 138.69-30.53L138.69-30.53L138.69-30.53Q137.02-30.53 134.34-30.98L134.34-30.98L134.34-30.98Q131.20-21.12 131.20-14.27L131.20-14.27L131.20-14.27Q131.20-7.42 134.66-3.84L134.66-3.84L134.66-3.84Q133.06-0.96 130.69 0.16L130.69 0.16L130.69 0.16Q128.32 1.28 124.77 1.28L124.77 1.28L124.77 1.28Q121.22 1.28 119.01-0.67L119.01-0.67L119.01-0.67Q116.80-2.62 116.80-6.66L116.80-6.66L116.80-6.66Q116.80-11.33 119.36-19.01L119.36-19.01L119.36-19.01Q121.92-26.62 125.76-32.45L125.76-32.45L125.76-32.45Q123.90-32.64 121.98-32.64L121.98-32.64L121.98-32.64Q118.02-32.64 117.38-31.17ZM178.82-13.25L178.82-13.25L178.82-13.25Q180.48-12.03 180.48-9.44L180.48-9.44L180.48-9.44Q180.48-6.85 179.36-5.02L179.36-5.02L179.36-5.02Q178.24-3.20 176.06-1.79L176.06-1.79L176.06-1.79Q171.39 1.22 163.23 1.22L163.23 1.22L163.23 1.22Q155.07 1.22 150.62-3.04L150.62-3.04L150.62-3.04Q146.18-7.30 146.18-14.85L146.18-14.85L146.18-14.85Q146.18-25.54 151.74-33.66L151.74-33.66L151.74-33.66Q155.97-39.68 163.52-42.24L163.52-42.24L163.52-42.24Q167.42-43.52 171.26-43.52L171.26-43.52L171.26-43.52Q175.10-43.52 177.47-43.01L177.47-43.01L177.47-43.01Q179.84-42.50 181.63-41.47L181.63-41.47L181.63-41.47Q185.54-39.23 185.54-35.65L185.54-35.65L185.54-35.65Q185.54-32.38 182.46-29.95L182.46-29.95L182.46-29.95Q179.65-27.78 177.34-27.78L177.34-27.78L177.34-27.78Q175.04-27.78 174.08-28.10L174.08-28.10L174.08-28.10Q174.34-30.40 174.34-31.90L174.34-31.90L174.34-31.90Q174.34-33.41 174.27-34.50L174.27-34.50L174.27-34.50Q174.21-35.58 173.89-36.61L173.89-36.61L173.89-36.61Q173.25-38.98 171.30-38.98L171.30-38.98L171.30-38.98Q169.34-38.98 167.39-37.15L167.39-37.15L167.39-37.15Q165.44-35.33 163.78-32.26L163.78-32.26L163.78-32.26Q160-25.28 160-17.02L160-17.02L160-17.02Q160-13.06 162.24-10.78L162.24-10.78L162.24-10.78Q164.48-8.51 169.28-8.51L169.28-8.51L169.28-8.51Q172.86-8.51 176.26-10.88L176.26-10.88L176.26-10.88Q177.73-11.90 178.82-13.25Z" fill="#4c80ef"></path></g></g><style>text {
  font-size: 64px;
  font-family: Arial Black;
  dominant-baseline: central;
  text-anchor: middle;
}</style></svg>